HIERARCHY
ROOT ui
{
	 OFFSET 0 0 0
	 CHANNELS 3 XPosition YPosition Z Position
	 EndSite
	 {
	 OFFSET 0 -1 0
	 }
}
ROOT li
{
	 OFFSET 0 0 0
	 CHANNELS 3 XPosition YPosition Z Position
	 EndSite
	 {
	 OFFSET 0 -1 0
	 }
}
ROOT ul
{
	 OFFSET 0 0 0
	 CHANNELS 3 XPosition YPosition Z Position
	 EndSite
	 {
	 OFFSET 0 -1 0
	 }
}
ROOT ll
{
	 OFFSET 0 0 0
	 CHANNELS 3 XPosition YPosition Z Position
	 EndSite
	 {
	 OFFSET 0 -1 0
	 }
}
ROOT tt
{
	 OFFSET 0 0 0
	 CHANNELS 3 XPosition YPosition Z Position
	 EndSite
	 {
	 OFFSET 0 -1 0
	 }
}
ROOT tb
{
	 OFFSET 0 0 0
	 CHANNELS 3 XPosition YPosition Z Position
	 EndSite
	 {
	 OFFSET 0 -1 0
	 }
}
ROOT td
{
	 OFFSET 0 0 0
	 CHANNELS 3 XPosition YPosition Z Position
	 EndSite
	 {
	 OFFSET 0 -1 0
	 }
}
ROOT v
{
	 OFFSET 0 0 0
	 CHANNELS 3 XPosition YPosition Z Position
	 EndSite
	 {
	 OFFSET 0 -1 0
	 }
}
ROOT bn
{
	 OFFSET 0 0 0
	 CHANNELS 3 XPosition YPosition Z Position
	 EndSite
	 {
	 OFFSET 0 -1 0
	 }
}
MOTION
Frames: 30
Frame Time: 0.002
0.0032045350074768066	2.9400500655174256E-4	0		0.5110478515625	-2.48668798828125	0		-1.1528135986328125	0.06793338775634766	0		-0.765608154296875	-2.7500478515625	0		1.4133170166015625	-0.7117529296875	0		2.96483447265625	0.13002308654785155	0		4.510615234375	0.22178836059570312	0		5.61673046875	0.14117503356933594	0		-0.2886036376953125	5.9621083984375	0		
-0.018357152938842772	0.004486393928527832	0		0.44479229736328124	-2.48187890625	0		-1.2162117919921875	0.08117514801025391	0		-0.7511052856445313	-2.755276123046875	0		1.41653369140625	-0.7093890380859375	0		2.983957763671875	0.11267665863037109	0		4.5041484375	0.22645213317871093	0		5.61989111328125	0.15015299987792968	0		-0.2542527008056641	5.97944873046875	0		
0.006995950222015381	0.0028780229091644287	0		0.517525390625	-2.47846435546875	0		-1.1357747802734375	0.08294673156738282	0		-0.7484578247070313	-2.75128759765625	0		1.4197718505859376	-0.7060263061523437	0		2.96485791015625	0.13998672485351563	0		4.51072607421875	0.23287002563476564	0		5.62011767578125	0.14709080505371094	0		-0.13692501831054688	5.991326171875	0		
-0.01761174774169922	0.004160792827606201	0		0.4611991882324219	-2.476777099609375	0		-1.153485107421875	0.07743889617919922	0		-0.7628167114257812	-2.74698095703125	0		1.407919677734375	-0.7073870239257812	0		2.966839599609375	0.1149293670654297	0		4.51116357421875	0.23139382934570313	0		5.6173994140625	0.1320411376953125	0		-0.14998463439941406	5.98147412109375	0		
0.007723856925964356	0.002567958116531372	0		0.48474099731445314	-2.482490234375	0		-1.15310595703125	0.0776294937133789	0		-0.7893814086914063	-2.753431396484375	0		1.4050166015625	-0.7108862915039063	0		2.966447265625	0.12593804168701173	0		4.50747900390625	0.22401080322265626	0		5.61761279296875	0.1290135498046875	0		-0.1469070281982422	5.9803544921875	0		
-0.020990201950073242	-2.6566000655293466E-5	0		0.45842312622070314	-2.479278076171875	0		-1.1468411865234376	0.07272404479980468	0		-0.7657302856445313	-2.747774658203125	0		1.412017822265625	-0.7185446166992188	0		2.971689208984375	0.11786802673339844	0		4.49788037109375	0.22277325439453124	0		5.61139208984375	0.12633714294433593	0		-0.263017822265625	5.97244482421875	0		
0.008368636131286621	0.002328221082687378	0		0.4600701904296875	-2.477552978515625	0		-1.2184254150390625	0.07828437042236328	0		-0.824204345703125	-2.747582275390625	0		1.41419775390625	-0.7150883178710937	0		2.96227490234375	0.130108154296875	0		4.5123603515625	0.22713623046875	0		5.62093408203125	0.1351532897949219	0		-0.2600479736328125	5.97139208984375	0		
-0.01633230781555176	0.0037111330032348635	0		0.4617054443359375	-2.475805908203125	0		-1.1439906005859375	0.08512287139892578	0		-0.75380712890625	-2.7547919921875	0		1.4142772216796875	-0.7155639038085938	0		2.9723369140625	0.11602197265625	0		4.512697265625	0.225813720703125	0		5.61814404296875	0.12040969848632813	0		-0.14095301818847655	5.98015185546875	0		
0.008883034706115723	0.0021649401187896727	0		0.4851920471191406	-2.481457763671875	0		-1.14596044921875	0.07339462280273437	0		-0.8010536499023437	-2.741761474609375	0		1.4122506103515624	-0.7199662475585937	0		2.986833740234375	0.12689917755126953	0		4.50888037109375	0.21863551330566405	0		5.6212509765625	0.13321145629882813	0		-0.13914242553710937	5.98011865234375	0		
-0.019970617294311523	-3.226580023765564E-4	0		0.48273080444335936	-2.4835908203125	0		-1.1457431640625	0.0736304931640625	0		-0.7676453247070313	-2.747273681640625	0		1.40540673828125	-0.71323583984375	0		2.967970458984375	0.12147135162353516	0		4.5091337890625	0.217455322265625	0		5.61837939453125	0.11529691314697266	0		-0.13744615173339844	5.9801025390625	0		
-0.019812530517578125	-3.514730036258698E-4	0		0.4563664245605469	-2.48022607421875	0		-1.145567626953125	0.0738676528930664	0		-0.7942889404296875	-2.754611328125	0		1.4122569580078126	-0.7207380981445313	0		2.96403955078125	0.11481665802001953	0		4.51418408203125	0.20825938415527342	0		5.61845654296875	0.11298188781738282	0		-0.2521089630126953	5.9693916015625	0		
0.009360556602478027	0.00205668306350708	0		0.4859520568847656	-2.479942626953125	0		-1.1313951416015624	0.07582365417480469	0		-0.755765625	-2.754231201171875	0		1.41429638671875	-0.7171077270507813	0		2.991859130859375	0.0975899429321289	0		4.5115888671875	0.21930323791503906	0		5.624412109375	0.13478269958496095	0		-0.1030433578491211	5.99949169921875	0		
-4.3213701248168943E-4	0.008252650260925294	0		0.461635986328125	-2.4745615234375	0		-1.1331138916015624	0.08509040069580077	0		-0.7860557861328125	-2.744476806640625	0		1.4172939453125	-0.7144595336914062	0		2.97251123046875	0.12437505340576172	0		4.5217158203125	0.2181795196533203	0		5.6244423828125	0.13282786560058593	0		-0.10173619079589843	5.99951025390625	0		
0.014395848274230957	-0.0030397160053253175	0		0.5069752807617187	-2.487570068359375	0		-1.1511630859375	0.07967880249023437	0		-0.7587426147460937	-2.75588720703125	0		1.4120728759765624	-0.7216098022460937	0		2.958346435546875	0.11211943817138671	0		4.5138515625	0.21951075744628906	0		5.6185458984375	0.10713191986083985	0		-0.13098748779296876	5.97915380859375	0		
-0.01544933032989502	0.003591778039932251	0		0.4547178955078125	-2.480570068359375	0		-1.1452274169921874	0.07477005004882813	0		-0.7699921264648437	-2.746516357421875	0		1.411977783203125	-0.7218265991210937	0		2.973387939453125	0.111335693359375	0		4.51976953125	0.21165203857421874	0		5.61853955078125	0.10556394195556641	0		-0.11573580169677734	5.98990625	0		
0.011361188888549804	-0.005935007095336914	0		0.48028125	-2.484147705078125	0		-1.1452147216796875	0.07496781158447266	0		-0.7616300659179688	-2.75755810546875	0		1.4118714599609374	-0.722010986328125	0		2.97340625	0.11091787719726562	0		4.51465966796875	0.20410784912109375	0		5.625603515625	0.09863591766357421	0		-0.128083984375	5.97822119140625	0		
-0.014653877258300781	-0.005366167068481445	0		0.43009085083007814	-2.476143310546875	0		-1.2171259765625	0.08064396667480468	0		-0.7928605346679688	-2.74978515625	0		1.411756591796875	-0.722166748046875	0		2.978669921875	0.12344997406005859	0		4.51779052734375	0.20948028564453125	0		5.6214384765625	0.11494078063964844	0		-0.09786650848388671	5.99966015625	0		
0.009469378471374511	0.0021631100177764893	0		0.48369497680664064	-2.480289306640625	0		-1.137109619140625	0.08214163208007813	0		-0.7680723876953125	-2.7431875	0		1.4116358642578124	-0.72229736328125	0		2.98233154296875	0.10805976104736328	0		4.5177763671875	0.20899429321289062	0		5.62139453125	0.11390042114257813	0		-0.11244475555419922	5.98901806640625	0		
-0.010662410736083984	-0.0013869210481643676	0		0.455425537109375	-2.47871923828125	0		-1.1452991943359374	0.07545319366455078	0		-0.7606486206054688	-2.7552470703125	0		1.4115123291015625	-0.72240625	0		2.987582763671875	0.12168815612792969	0		4.5139130859375	0.21666180419921874	0		5.621341796875	0.11301121520996094	0		-0.11190752410888671	5.9890595703125	0		
0.014248169898986817	-0.0028849029541015625	0		0.5049747314453125	-2.48778173828125	0		-1.14535546875	0.0755773696899414	0		-0.771750732421875	-2.74592529296875	0		1.39937060546875	-0.7232438354492188	0		2.9732802734375	0.10976272583007812	0		4.5245712890625	0.2020814971923828	0		5.62472998046875	0.09823660278320312	0		-0.12667422485351562	5.9794150390625	0		
-0.01977086639404297	-1.4260399341583252E-4	0		0.4528668518066406	-2.480694580078125	0		-1.1454188232421876	0.07568378448486328	0		-0.763250244140625	-2.757033447265625	0		1.4020379638671876	-0.73338037109375	0		2.96836865234375	0.11667915344238282	0		4.5176455078125	0.20792965698242188	0		5.6253525390625	0.09409992218017578	0		-0.24356468200683593	5.96892626953125	0		
0.01410860252380371	-0.0028416171073913574	0		0.49248895263671877	-2.48854833984375	0		-1.1263829345703125	0.08036943054199219	0		-0.8282182006835938	-2.743590576171875	0		1.411154541015625	-0.7226380004882812	0		2.991833251953125	0.09401610565185547	0		4.51758740234375	0.20767709350585936	0		5.6346533203125	0.10345751190185547	0		-0.09462876892089844	5.99781494140625	0		
-0.004805869102478028	0.004576169013977051	0		0.4606422119140625	-2.471880615234375	0		-1.133317138671875	0.0865903549194336	0		-0.754484619140625	-2.74710546875	0		1.4110501708984375	-0.7226937255859375	0		2.97234912109375	0.12129901885986329	0		4.5216572265625	0.21337673950195313	0		5.624068359375	0.12257441711425782	0		-0.09534809875488282	5.99985693359375	0		
0.034082527160644534	0.0017571010589599609	0		0.5061886291503906	-2.4858662109375	0		-1.1456053466796876	0.07590824890136719	0		-0.7706163330078125	-2.744721435546875	0		1.4048111572265625	-0.729613525390625	0		2.953935791015625	0.1045703353881836	0		4.5195	0.20823811340332032	0		5.62450390625	0.09620323944091796	0		-0.09515156555175781	5.9998720703125	0		
-0.011043671607971192	-0.0012772630453109742	0		0.47807461547851565	-2.48428173828125	0		-1.14565380859375	0.07595555877685548	0		-0.7270549926757812	-2.7586240234375	0		1.395799560546875	-0.7264677734375	0		2.972990966796875	0.10906159210205078	0		4.50947998046875	0.20929214477539063	0		5.6210185546875	0.10988558959960938	0		-0.11021537780761718	5.98920361328125	0		
0.010823271751403808	-0.0057473030090332035	0		0.477952392578125	-2.484298095703125	0		-1.14569384765625	0.07599126434326171	0		-0.8329694213867187	-2.747338134765625	0		1.401582763671875	-0.7336402587890625	0		2.977801025390625	0.10185982513427734	0		4.51427197265625	0.2010412902832031	0		5.61802392578125	0.09761759948730468	0		-0.22729541015625	5.9797099609375	0		
-0.016013908386230468	0.003819767951965332	0		0.4539552001953125	-2.478808349609375	0		-1.137579345703125	0.08284403228759765	0		-0.7601892700195313	-2.75288330078125	0		1.4046099853515626	-0.7297555541992188	0		2.963199951171875	0.12207932281494141	0		4.5073720703125	0.20704708862304688	0		5.623912109375	0.12123721313476563	0		-0.09469140625	5.99987744140625	0		
0.013819480895996094	-0.0028375840187072755	0		0.4558943481445312	-2.476881103515625	0		-1.1434996337890626	0.08798833465576172	0		-0.8291132202148438	-2.743400390625	0		1.4076212158203125	-0.7268775634765625	0		2.98184619140625	0.10657322692871093	0		4.52349365234375	0.21355535888671875	0		5.62388525390625	0.12093118286132812	0		-0.22701092529296876	5.9796982421875	0		
-0.011181768417358398	-0.001325729012489319	0		0.47967953491210935	-2.4824326171875	0		-1.1417191162109375	0.07895738983154296	0		-0.7712364501953125	-2.744644775390625	0		1.40142236328125	-0.7338130493164062	0		2.991968994140625	0.11324430084228515	0		4.5141943359375	0.20059303283691407	0		5.6273037109375	0.10658279418945313	0		-0.10963101959228516	5.9891669921875	0		
-0.02018497657775879	-1.6404999792575837E-4	0		0.4516030883789062	-2.4808779296875	0		-1.145806884765625	0.07604788970947265	0		-0.7733701171875	-2.745609130859375	0		1.40137255859375	-0.7338887939453125	0		2.9728427734375	0.1085283432006836	0		4.5193232421875	0.20731080627441406	0		5.6243203125	0.09426958465576171	0		-0.2571242370605469	5.9603056640625	0		
